<mxfile host="app.diagrams.net" modified="2020-10-12T21:46:11.107Z" agent="5.0 (Windows NT 10.0; Win64; x64) AppleWebKit/537.36 (KHTML, like Gecko) Chrome/85.0.4183.121 Safari/537.36" etag="fPZivb2hXha8LOQC7Kqr" version="13.7.9" type="github">
  <diagram name="Page-1" id="0783ab3e-0a74-02c8-0abd-f7b4e66b4bec">
    <mxGraphModel dx="981" dy="526" grid="1" gridSize="10" guides="1" tooltips="1" connect="1" arrows="1" fold="1" page="1" pageScale="1" pageWidth="850" pageHeight="1100" background="#ffffff" math="0" shadow="0">
      <root>
        <mxCell id="0" />
        <mxCell id="1" parent="0" />
        <mxCell id="1c1d494c118603dd-1" value="Bagel Order" style="swimlane;html=1;childLayout=stackLayout;startSize=20;rounded=0;shadow=0;comic=0;labelBackgroundColor=none;strokeWidth=1;fontFamily=Verdana;fontSize=12;align=center;" parent="1" vertex="1">
          <mxGeometry x="40" y="20" width="750" height="1030" as="geometry" />
        </mxCell>
        <mxCell id="1c1d494c118603dd-2" value="Customer" style="swimlane;html=1;startSize=20;" parent="1c1d494c118603dd-1" vertex="1">
          <mxGeometry y="20" width="250" height="1010" as="geometry" />
        </mxCell>
        <mxCell id="60571a20871a0731-8" value="View Menu" style="rounded=1;whiteSpace=wrap;html=1;shadow=0;comic=0;labelBackgroundColor=none;strokeWidth=1;fontFamily=Verdana;fontSize=12;align=center;arcSize=50;" parent="1c1d494c118603dd-2" vertex="1">
          <mxGeometry y="80" width="100" height="30" as="geometry" />
        </mxCell>
        <mxCell id="fOimNa5-1B9N_TUeQWi6-43" value="View Order Status" style="rounded=1;whiteSpace=wrap;html=1;shadow=0;comic=0;labelBackgroundColor=none;strokeWidth=1;fontFamily=Verdana;fontSize=12;align=center;arcSize=50;" vertex="1" parent="1c1d494c118603dd-2">
          <mxGeometry x="75" y="300" width="100" height="30" as="geometry" />
        </mxCell>
        <mxCell id="fOimNa5-1B9N_TUeQWi6-3" value="" style="rhombus;whiteSpace=wrap;html=1;" vertex="1" parent="1c1d494c118603dd-2">
          <mxGeometry x="115" y="180" width="20" height="20" as="geometry" />
        </mxCell>
        <mxCell id="60571a20871a0731-4" value="" style="ellipse;whiteSpace=wrap;html=1;rounded=0;shadow=0;comic=0;labelBackgroundColor=none;strokeWidth=1;fillColor=#000000;fontFamily=Verdana;fontSize=12;align=center;" parent="1c1d494c118603dd-2" vertex="1">
          <mxGeometry x="105" y="40" width="40" height="40" as="geometry" />
        </mxCell>
        <mxCell id="1c1d494c118603dd-35" style="edgeStyle=none;rounded=0;html=1;labelBackgroundColor=none;startArrow=none;startFill=0;startSize=5;endArrow=classicThin;endFill=1;endSize=5;jettySize=auto;orthogonalLoop=1;strokeWidth=1;fontFamily=Verdana;fontSize=12;exitX=0.5;exitY=1;exitDx=0;exitDy=0;" parent="1c1d494c118603dd-2" source="fOimNa5-1B9N_TUeQWi6-3" target="1c1d494c118603dd-7" edge="1">
          <mxGeometry relative="1" as="geometry">
            <mxPoint x="130" y="310" as="sourcePoint" />
          </mxGeometry>
        </mxCell>
        <mxCell id="fOimNa5-1B9N_TUeQWi6-11" value="Valid Login" style="edgeLabel;html=1;align=center;verticalAlign=middle;resizable=0;points=[];" vertex="1" connectable="0" parent="1c1d494c118603dd-35">
          <mxGeometry x="-0.2468" y="1" relative="1" as="geometry">
            <mxPoint as="offset" />
          </mxGeometry>
        </mxCell>
        <mxCell id="1c1d494c118603dd-27" style="edgeStyle=orthogonalEdgeStyle;rounded=0;html=1;labelBackgroundColor=none;startArrow=none;startFill=0;startSize=5;endArrow=classicThin;endFill=1;endSize=5;jettySize=auto;orthogonalLoop=1;strokeWidth=1;fontFamily=Verdana;fontSize=12;entryX=0.5;entryY=0;entryDx=0;entryDy=0;" parent="1c1d494c118603dd-2" source="60571a20871a0731-4" target="60571a20871a0731-8" edge="1">
          <mxGeometry relative="1" as="geometry" />
        </mxCell>
        <mxCell id="1c1d494c118603dd-28" style="edgeStyle=orthogonalEdgeStyle;rounded=0;html=1;labelBackgroundColor=none;startArrow=none;startFill=0;endArrow=classicThin;endFill=1;jettySize=auto;orthogonalLoop=1;strokeWidth=1;fontFamily=Verdana;fontSize=12;exitX=0.5;exitY=1;exitDx=0;exitDy=0;entryX=0.5;entryY=0;entryDx=0;entryDy=0;" parent="1c1d494c118603dd-2" source="60571a20871a0731-8" target="1c1d494c118603dd-6" edge="1">
          <mxGeometry relative="1" as="geometry">
            <Array as="points">
              <mxPoint x="50" y="120" />
              <mxPoint x="167" y="120" />
            </Array>
            <mxPoint x="170" y="110" as="targetPoint" />
          </mxGeometry>
        </mxCell>
        <mxCell id="1c1d494c118603dd-34" style="edgeStyle=none;rounded=0;html=1;labelBackgroundColor=none;startArrow=none;startFill=0;startSize=5;endArrow=classicThin;endFill=1;endSize=5;jettySize=auto;orthogonalLoop=1;strokeWidth=1;fontFamily=Verdana;fontSize=12;exitX=0.424;exitY=1.028;exitDx=0;exitDy=0;exitPerimeter=0;" parent="1c1d494c118603dd-2" source="1c1d494c118603dd-6" target="fOimNa5-1B9N_TUeQWi6-3" edge="1">
          <mxGeometry relative="1" as="geometry">
            <mxPoint x="120" y="240" as="targetPoint" />
          </mxGeometry>
        </mxCell>
        <mxCell id="1c1d494c118603dd-7" value="Place Order" style="rounded=1;whiteSpace=wrap;html=1;shadow=0;comic=0;labelBackgroundColor=none;strokeWidth=1;fontFamily=Verdana;fontSize=12;align=center;arcSize=50;" parent="1c1d494c118603dd-2" vertex="1">
          <mxGeometry x="75" y="240" width="100" height="30" as="geometry" />
        </mxCell>
        <mxCell id="1c1d494c118603dd-6" value="Customer enters Login info" style="rounded=1;whiteSpace=wrap;html=1;shadow=0;comic=0;labelBackgroundColor=none;strokeWidth=1;fontFamily=Verdana;fontSize=12;align=center;arcSize=50;" parent="1c1d494c118603dd-2" vertex="1">
          <mxGeometry x="90" y="130" width="155" height="30" as="geometry" />
        </mxCell>
        <mxCell id="fOimNa5-1B9N_TUeQWi6-9" style="edgeStyle=orthogonalEdgeStyle;rounded=0;orthogonalLoop=1;jettySize=auto;html=1;entryX=-0.002;entryY=0.331;entryDx=0;entryDy=0;entryPerimeter=0;" edge="1" parent="1c1d494c118603dd-2" source="fOimNa5-1B9N_TUeQWi6-3" target="1c1d494c118603dd-6">
          <mxGeometry relative="1" as="geometry">
            <mxPoint x="40" y="140" as="targetPoint" />
            <mxPoint x="115" y="190" as="sourcePoint" />
            <Array as="points">
              <mxPoint x="40" y="190" />
              <mxPoint x="40" y="140" />
            </Array>
          </mxGeometry>
        </mxCell>
        <mxCell id="fOimNa5-1B9N_TUeQWi6-10" value="Invalid Login" style="edgeLabel;html=1;align=center;verticalAlign=middle;resizable=0;points=[];" vertex="1" connectable="0" parent="fOimNa5-1B9N_TUeQWi6-9">
          <mxGeometry x="-0.5201" y="-2" relative="1" as="geometry">
            <mxPoint as="offset" />
          </mxGeometry>
        </mxCell>
        <mxCell id="1c1d494c118603dd-4" value="Cook" style="swimlane;html=1;startSize=20;" parent="1c1d494c118603dd-1" vertex="1">
          <mxGeometry x="250" y="20" width="250" height="1010" as="geometry" />
        </mxCell>
        <mxCell id="fOimNa5-1B9N_TUeQWi6-34" style="edgeStyle=orthogonalEdgeStyle;rounded=0;orthogonalLoop=1;jettySize=auto;html=1;exitX=0.5;exitY=1;exitDx=0;exitDy=0;entryX=0.5;entryY=0;entryDx=0;entryDy=0;" edge="1" parent="1c1d494c118603dd-4" source="1c1d494c118603dd-8" target="fOimNa5-1B9N_TUeQWi6-37">
          <mxGeometry relative="1" as="geometry">
            <mxPoint x="85" y="340" as="targetPoint" />
          </mxGeometry>
        </mxCell>
        <mxCell id="fOimNa5-1B9N_TUeQWi6-31" style="edgeStyle=orthogonalEdgeStyle;rounded=0;orthogonalLoop=1;jettySize=auto;html=1;exitX=0.25;exitY=1;exitDx=0;exitDy=0;entryX=0.5;entryY=0.063;entryDx=0;entryDy=0;entryPerimeter=0;" edge="1" parent="1c1d494c118603dd-4" source="1c1d494c118603dd-12" target="1c1d494c118603dd-8">
          <mxGeometry relative="1" as="geometry">
            <Array as="points">
              <mxPoint x="130" y="260" />
              <mxPoint x="130" y="292" />
            </Array>
          </mxGeometry>
        </mxCell>
        <mxCell id="fOimNa5-1B9N_TUeQWi6-49" style="edgeStyle=orthogonalEdgeStyle;rounded=0;orthogonalLoop=1;jettySize=auto;html=1;entryX=0.5;entryY=0;entryDx=0;entryDy=0;" edge="1" parent="1c1d494c118603dd-4" source="fOimNa5-1B9N_TUeQWi6-37" target="fOimNa5-1B9N_TUeQWi6-47">
          <mxGeometry relative="1" as="geometry" />
        </mxCell>
        <mxCell id="fOimNa5-1B9N_TUeQWi6-37" value="Update Order Status" style="rounded=1;whiteSpace=wrap;html=1;shadow=0;comic=0;labelBackgroundColor=none;strokeWidth=1;fontFamily=Verdana;fontSize=12;align=center;arcSize=50;" vertex="1" parent="1c1d494c118603dd-4">
          <mxGeometry x="70" y="350" width="130" height="30" as="geometry" />
        </mxCell>
        <mxCell id="1c1d494c118603dd-12" value="" style="whiteSpace=wrap;html=1;rounded=0;shadow=0;comic=0;labelBackgroundColor=none;strokeWidth=1;fillColor=#000000;fontFamily=Verdana;fontSize=12;align=center;rotation=0;" parent="1c1d494c118603dd-4" vertex="1">
          <mxGeometry x="62" y="250" width="147" height="10" as="geometry" />
        </mxCell>
        <mxCell id="1c1d494c118603dd-8" value="Prepare Bagel" style="rounded=1;whiteSpace=wrap;html=1;shadow=0;comic=0;labelBackgroundColor=none;strokeWidth=1;fontFamily=Verdana;fontSize=12;align=center;arcSize=50;" parent="1c1d494c118603dd-4" vertex="1">
          <mxGeometry x="62" y="300" width="100" height="30" as="geometry" />
        </mxCell>
        <mxCell id="fOimNa5-1B9N_TUeQWi6-52" style="edgeStyle=orthogonalEdgeStyle;rounded=0;orthogonalLoop=1;jettySize=auto;html=1;entryX=0.5;entryY=0;entryDx=0;entryDy=0;" edge="1" parent="1c1d494c118603dd-4" source="fOimNa5-1B9N_TUeQWi6-47" target="fOimNa5-1B9N_TUeQWi6-51">
          <mxGeometry relative="1" as="geometry" />
        </mxCell>
        <mxCell id="fOimNa5-1B9N_TUeQWi6-47" value="" style="whiteSpace=wrap;html=1;rounded=0;shadow=0;comic=0;labelBackgroundColor=none;strokeWidth=1;fillColor=#000000;fontFamily=Verdana;fontSize=12;align=center;rotation=0;" vertex="1" parent="1c1d494c118603dd-4">
          <mxGeometry x="35" y="440" width="200" height="10" as="geometry" />
        </mxCell>
        <mxCell id="fOimNa5-1B9N_TUeQWi6-51" value="Give Bagel to Cashier" style="rounded=1;whiteSpace=wrap;html=1;shadow=0;comic=0;labelBackgroundColor=none;strokeWidth=1;fontFamily=Verdana;fontSize=12;align=center;arcSize=50;" vertex="1" parent="1c1d494c118603dd-4">
          <mxGeometry x="90" y="490" width="135" height="30" as="geometry" />
        </mxCell>
        <mxCell id="1c1d494c118603dd-3" value="Cashier" style="swimlane;html=1;startSize=20;" parent="1c1d494c118603dd-1" vertex="1">
          <mxGeometry x="500" y="20" width="250" height="1010" as="geometry" />
        </mxCell>
        <mxCell id="fOimNa5-1B9N_TUeQWi6-102" style="edgeStyle=orthogonalEdgeStyle;rounded=0;orthogonalLoop=1;jettySize=auto;html=1;exitX=0.5;exitY=1;exitDx=0;exitDy=0;entryX=0;entryY=0.5;entryDx=0;entryDy=0;" edge="1" parent="1c1d494c118603dd-3" source="fOimNa5-1B9N_TUeQWi6-97" target="1c1d494c118603dd-19">
          <mxGeometry relative="1" as="geometry" />
        </mxCell>
        <mxCell id="fOimNa5-1B9N_TUeQWi6-97" value="Refund Order" style="rounded=1;whiteSpace=wrap;html=1;shadow=0;comic=0;labelBackgroundColor=none;strokeWidth=1;fontFamily=Verdana;fontSize=12;align=center;arcSize=50;" vertex="1" parent="1c1d494c118603dd-3">
          <mxGeometry x="5" y="570" width="100" height="30" as="geometry" />
        </mxCell>
        <mxCell id="fOimNa5-1B9N_TUeQWi6-40" value="Update Order Status" style="rounded=1;whiteSpace=wrap;html=1;shadow=0;comic=0;labelBackgroundColor=none;strokeWidth=1;fontFamily=Verdana;fontSize=12;align=center;arcSize=50;" vertex="1" parent="1c1d494c118603dd-3">
          <mxGeometry x="20" y="340" width="140" height="30" as="geometry" />
        </mxCell>
        <mxCell id="fOimNa5-1B9N_TUeQWi6-41" style="edgeStyle=orthogonalEdgeStyle;rounded=0;orthogonalLoop=1;jettySize=auto;html=1;exitX=0.5;exitY=1;exitDx=0;exitDy=0;entryX=0.5;entryY=0;entryDx=0;entryDy=0;" edge="1" parent="1c1d494c118603dd-3" source="fOimNa5-1B9N_TUeQWi6-29" target="fOimNa5-1B9N_TUeQWi6-40">
          <mxGeometry relative="1" as="geometry" />
        </mxCell>
        <mxCell id="fOimNa5-1B9N_TUeQWi6-29" value="Prepare Schmear &amp;amp; Beverage" style="rounded=1;whiteSpace=wrap;html=1;shadow=0;comic=0;labelBackgroundColor=none;strokeWidth=1;fontFamily=Verdana;fontSize=12;align=center;arcSize=50;" vertex="1" parent="1c1d494c118603dd-3">
          <mxGeometry y="290" width="140" height="30" as="geometry" />
        </mxCell>
        <mxCell id="fOimNa5-1B9N_TUeQWi6-96" style="edgeStyle=orthogonalEdgeStyle;rounded=0;orthogonalLoop=1;jettySize=auto;html=1;exitX=0.5;exitY=1;exitDx=0;exitDy=0;entryX=0.5;entryY=0;entryDx=0;entryDy=0;" edge="1" parent="1c1d494c118603dd-3" source="fOimNa5-1B9N_TUeQWi6-90" target="fOimNa5-1B9N_TUeQWi6-94">
          <mxGeometry relative="1" as="geometry" />
        </mxCell>
        <mxCell id="fOimNa5-1B9N_TUeQWi6-90" value="Give Order to Customer" style="rounded=1;whiteSpace=wrap;html=1;shadow=0;comic=0;labelBackgroundColor=none;strokeWidth=1;fontFamily=Verdana;fontSize=12;align=center;arcSize=50;" vertex="1" parent="1c1d494c118603dd-3">
          <mxGeometry x="22.5" y="490" width="167.5" height="30" as="geometry" />
        </mxCell>
        <mxCell id="fOimNa5-1B9N_TUeQWi6-98" style="edgeStyle=orthogonalEdgeStyle;rounded=0;orthogonalLoop=1;jettySize=auto;html=1;exitX=0;exitY=0.5;exitDx=0;exitDy=0;entryX=0.18;entryY=0.089;entryDx=0;entryDy=0;entryPerimeter=0;" edge="1" parent="1c1d494c118603dd-3" source="fOimNa5-1B9N_TUeQWi6-94" target="fOimNa5-1B9N_TUeQWi6-97">
          <mxGeometry relative="1" as="geometry" />
        </mxCell>
        <mxCell id="fOimNa5-1B9N_TUeQWi6-99" value="Failure" style="edgeLabel;html=1;align=center;verticalAlign=middle;resizable=0;points=[];" vertex="1" connectable="0" parent="fOimNa5-1B9N_TUeQWi6-98">
          <mxGeometry x="-0.0969" y="-2" relative="1" as="geometry">
            <mxPoint as="offset" />
          </mxGeometry>
        </mxCell>
        <mxCell id="fOimNa5-1B9N_TUeQWi6-100" style="edgeStyle=orthogonalEdgeStyle;rounded=0;orthogonalLoop=1;jettySize=auto;html=1;exitX=1;exitY=0.5;exitDx=0;exitDy=0;entryX=1;entryY=0.5;entryDx=0;entryDy=0;" edge="1" parent="1c1d494c118603dd-3" source="fOimNa5-1B9N_TUeQWi6-94" target="1c1d494c118603dd-19">
          <mxGeometry relative="1" as="geometry" />
        </mxCell>
        <mxCell id="fOimNa5-1B9N_TUeQWi6-101" value="Success" style="edgeLabel;html=1;align=center;verticalAlign=middle;resizable=0;points=[];" vertex="1" connectable="0" parent="fOimNa5-1B9N_TUeQWi6-100">
          <mxGeometry x="-0.7833" y="-1" relative="1" as="geometry">
            <mxPoint as="offset" />
          </mxGeometry>
        </mxCell>
        <mxCell id="fOimNa5-1B9N_TUeQWi6-94" value="" style="rhombus;whiteSpace=wrap;html=1;" vertex="1" parent="1c1d494c118603dd-3">
          <mxGeometry x="96.25" y="540" width="20" height="20" as="geometry" />
        </mxCell>
        <mxCell id="60571a20871a0731-5" value="" style="shape=mxgraph.bpmn.shape;html=1;verticalLabelPosition=bottom;labelBackgroundColor=#ffffff;verticalAlign=top;perimeter=ellipsePerimeter;outline=end;symbol=terminate;rounded=0;shadow=0;comic=0;strokeWidth=1;fontFamily=Verdana;fontSize=12;align=center;" parent="1c1d494c118603dd-3" vertex="1">
          <mxGeometry x="105" y="940" width="40" height="40" as="geometry" />
        </mxCell>
        <mxCell id="1c1d494c118603dd-45" style="edgeStyle=none;rounded=0;html=1;labelBackgroundColor=none;startArrow=none;startFill=0;startSize=5;endArrow=classicThin;endFill=1;endSize=5;jettySize=auto;orthogonalLoop=1;strokeWidth=1;fontFamily=Verdana;fontSize=12" parent="1c1d494c118603dd-3" source="1c1d494c118603dd-19" target="60571a20871a0731-5" edge="1">
          <mxGeometry relative="1" as="geometry" />
        </mxCell>
        <mxCell id="1c1d494c118603dd-19" value="Fulfill Order" style="rounded=1;whiteSpace=wrap;html=1;shadow=0;comic=0;labelBackgroundColor=none;strokeWidth=1;fontFamily=Verdana;fontSize=12;align=center;arcSize=50;" parent="1c1d494c118603dd-3" vertex="1">
          <mxGeometry x="75" y="880" width="100" height="30" as="geometry" />
        </mxCell>
        <mxCell id="fOimNa5-1B9N_TUeQWi6-12" style="edgeStyle=orthogonalEdgeStyle;rounded=0;orthogonalLoop=1;jettySize=auto;html=1;exitX=1;exitY=0.5;exitDx=0;exitDy=0;entryX=0;entryY=0.5;entryDx=0;entryDy=0;" edge="1" parent="1c1d494c118603dd-1" source="1c1d494c118603dd-7" target="1c1d494c118603dd-12">
          <mxGeometry relative="1" as="geometry">
            <mxPoint x="300" y="275.28571428571433" as="targetPoint" />
          </mxGeometry>
        </mxCell>
        <mxCell id="fOimNa5-1B9N_TUeQWi6-32" style="edgeStyle=orthogonalEdgeStyle;rounded=0;orthogonalLoop=1;jettySize=auto;html=1;exitX=0.75;exitY=1;exitDx=0;exitDy=0;entryX=0;entryY=0.5;entryDx=0;entryDy=0;" edge="1" parent="1c1d494c118603dd-1" source="1c1d494c118603dd-12" target="fOimNa5-1B9N_TUeQWi6-29">
          <mxGeometry relative="1" as="geometry" />
        </mxCell>
        <mxCell id="fOimNa5-1B9N_TUeQWi6-44" style="edgeStyle=orthogonalEdgeStyle;rounded=0;orthogonalLoop=1;jettySize=auto;html=1;exitX=0.25;exitY=1;exitDx=0;exitDy=0;entryX=0.5;entryY=0;entryDx=0;entryDy=0;" edge="1" parent="1c1d494c118603dd-1" source="1c1d494c118603dd-12" target="fOimNa5-1B9N_TUeQWi6-43">
          <mxGeometry relative="1" as="geometry" />
        </mxCell>
        <mxCell id="fOimNa5-1B9N_TUeQWi6-48" style="edgeStyle=orthogonalEdgeStyle;rounded=0;orthogonalLoop=1;jettySize=auto;html=1;entryX=0.084;entryY=-0.186;entryDx=0;entryDy=0;entryPerimeter=0;" edge="1" parent="1c1d494c118603dd-1" source="fOimNa5-1B9N_TUeQWi6-43" target="fOimNa5-1B9N_TUeQWi6-47">
          <mxGeometry relative="1" as="geometry">
            <Array as="points">
              <mxPoint x="125" y="430" />
              <mxPoint x="302" y="430" />
            </Array>
          </mxGeometry>
        </mxCell>
        <mxCell id="fOimNa5-1B9N_TUeQWi6-50" style="edgeStyle=orthogonalEdgeStyle;rounded=0;orthogonalLoop=1;jettySize=auto;html=1;exitX=0.5;exitY=1;exitDx=0;exitDy=0;entryX=0.75;entryY=0;entryDx=0;entryDy=0;" edge="1" parent="1c1d494c118603dd-1" source="fOimNa5-1B9N_TUeQWi6-40" target="fOimNa5-1B9N_TUeQWi6-47">
          <mxGeometry relative="1" as="geometry" />
        </mxCell>
        <mxCell id="fOimNa5-1B9N_TUeQWi6-91" style="edgeStyle=orthogonalEdgeStyle;rounded=0;orthogonalLoop=1;jettySize=auto;html=1;exitX=1;exitY=0.5;exitDx=0;exitDy=0;entryX=0;entryY=0.5;entryDx=0;entryDy=0;" edge="1" parent="1c1d494c118603dd-1" source="fOimNa5-1B9N_TUeQWi6-51" target="fOimNa5-1B9N_TUeQWi6-90">
          <mxGeometry relative="1" as="geometry" />
        </mxCell>
      </root>
    </mxGraphModel>
  </diagram>
</mxfile>
